<?xml version="1.0" standalone="no"?>
<!DOCTYPE svg PUBLIC "-//W3C//DTD SVG 20010904//EN"
 "http://www.w3.org/TR/2001/REC-SVG-20010904/DTD/svg10.dtd">
<svg version="1.0" xmlns="http://www.w3.org/2000/svg"
 width="24.000000pt" height="24.000000pt" viewBox="0 0 24.000000 24.000000"
 preserveAspectRatio="xMidYMid meet">

<g transform="translate(0.000000,24.000000) scale(0.100000,-0.100000)"
fill="#000000" stroke="none">
<path d="M110 205 c0 -8 -4 -15 -10 -15 -5 0 -10 -7 -10 -15 0 -10 -11 -15
-35 -15 -27 0 -35 -4 -35 -18 0 -10 9 -24 20 -32 21 -15 27 -40 10 -40 -5 0
-10 -11 -10 -25 0 -18 5 -25 20 -25 11 0 20 5 20 10 0 6 6 10 14 10 8 0 17 6
20 13 5 9 7 9 12 0 3 -7 12 -13 20 -13 8 0 14 -4 14 -10 0 -5 9 -10 20 -10 15
0 20 7 20 25 0 14 -4 25 -10 25 -17 0 -11 25 10 40 11 8 20 22 20 32 0 14 -8
18 -35 18 -24 0 -35 5 -35 15 0 8 -4 15 -10 15 -5 0 -10 7 -10 15 0 8 -4 15
-10 15 -5 0 -10 -7 -10 -15z"/>
</g>
</svg>
